<?xml version="1.0" standalone="no"?>
<!DOCTYPE svg PUBLIC "-//W3C//DTD SVG 20010904//EN"
 "http://www.w3.org/TR/2001/REC-SVG-20010904/DTD/svg10.dtd">
<svg version="1.0" xmlns="http://www.w3.org/2000/svg"
 width="576.000000pt" height="394.000000pt" viewBox="0 0 576.000000 394.000000"
 preserveAspectRatio="xMidYMid meet">

<g transform="translate(0.000000,394.000000) scale(0.100000,-0.100000)"
fill="#000000" stroke="none">
<path d="M3282 3578 l-264 -352 26 -66 c30 -76 31 -83 12 -99 -10 -9 -34 2
-107 53 -110 74 -511 317 -623 375 -114 60 -194 54 -246 -19 -33 -46 -36 -91
-11 -143 12 -24 30 -52 40 -61 34 -31 683 -329 803 -370 16 -5 16 -9 -7 -42
-51 -75 -82 -249 -52 -289 14 -18 17 -18 30 -5 8 8 25 52 39 97 14 46 43 110
64 143 32 49 44 60 66 60 22 0 33 9 53 45 16 26 24 52 21 63 -7 22 1 33 291
420 117 156 220 297 229 315 21 40 21 94 1 134 -25 47 -67 93 -85 92 -10 0
-124 -143 -280 -351z m288 307 c0 -2 -106 -142 -236 -311 -130 -169 -238 -313
-241 -320 -2 -6 0 -15 5 -18 6 -3 119 136 252 309 133 173 244 315 246 315 11
0 34 -64 34 -96 0 -27 -11 -52 -47 -102 -52 -74 -471 -632 -483 -646 -5 -4
-13 -5 -20 -1 -8 5 -5 16 8 37 19 30 19 31 -4 91 -13 33 -24 67 -24 74 0 15
491 673 503 673 4 0 7 -2 7 -5z m-580 -1022 c0 -2 -14 -25 -32 -51 -18 -26
-45 -83 -60 -127 l-29 -80 6 57 c9 103 67 224 100 211 8 -3 15 -7 15 -10z"/>
<path d="M955 3058 c-136 -49 -211 -195 -170 -333 13 -45 28 -69 70 -111 41
-42 49 -54 34 -54 -10 0 -28 -9 -39 -20 -21 -21 -27 -74 -10 -85 6 -3 10 -17
10 -31 0 -21 -5 -24 -34 -24 -25 0 -40 -7 -55 -26 -12 -15 -21 -33 -21 -40 0
-26 23 -62 46 -73 l24 -11 0 -667 0 -668 -30 -17 c-57 -33 -47 -113 17 -132
26 -8 32 -16 37 -46 8 -52 57 -114 108 -139 84 -40 197 -23 254 41 30 32 54
82 54 110 0 18 8 26 32 33 65 20 76 100 18 133 l-30 17 0 668 0 667 24 10 c76
28 50 140 -32 140 -36 0 -42 19 -18 64 8 15 11 36 9 47 -7 24 -41 49 -67 49
-14 0 -7 10 28 41 69 61 91 108 91 199 0 89 -19 134 -80 196 -65 65 -184 92
-270 62z m23 -37 c-1 -5 -25 -24 -52 -43 -31 -20 -59 -50 -74 -78 -21 -39 -23
-54 -19 -119 5 -70 8 -76 47 -116 39 -39 42 -63 7 -50 -18 8 -61 65 -53 72 3
3 -2 12 -11 18 -13 9 -18 31 -21 81 -3 60 0 76 25 124 30 58 99 120 135 120
11 0 18 -4 16 -9z m222 -601 c0 -6 -60 -10 -160 -10 -100 0 -160 4 -160 10 0
6 60 10 160 10 100 0 160 -4 160 -10z m98 -62 c7 -7 12 -19 12 -28 -1 -40 -8
-41 -265 -41 -208 0 -251 3 -264 15 -12 12 -12 20 -3 41 l12 25 248 0 c180 0
251 -3 260 -12z m-210 -261 l153 -153 -3 -47 -3 -47 -200 200 -200 200 50 0
50 0 153 -153z m60 60 c88 -88 93 -96 90 -131 l-3 -37 -130 131 -130 130 40 0
c38 0 47 -7 133 -93z m92 23 c0 -38 -1 -70 -3 -70 -1 0 -34 32 -72 70 l-69 70
72 0 72 0 0 -70z m0 -415 l0 -40 -200 200 c-193 193 -200 201 -200 240 l0 40
200 -200 c193 -193 200 -201 200 -240z m0 -135 l0 -45 -200 200 -200 200 0 45
0 45 200 -200 200 -200 0 -45z m0 -130 c0 -34 -3 -32 -200 165 -184 184 -200
203 -200 235 0 34 3 32 200 -165 184 -184 200 -203 200 -235z m0 -130 l0 -45
-200 200 -200 200 0 45 0 45 200 -200 200 -200 0 -45z m0 -135 l0 -40 -200
200 c-193 193 -200 201 -200 240 l0 40 200 -200 c193 -193 200 -201 200 -240z
m0 -130 l0 -50 -200 200 -200 200 0 50 0 50 200 -200 200 -200 0 -50z m0 -130
l0 -40 -200 200 c-193 193 -200 201 -200 240 l0 40 200 -200 c193 -193 200
-201 200 -240z m-67 -63 l-47 -3 -143 143 -143 143 0 50 0 50 190 -190 190
-190 -47 -3z m-129 0 c-35 -3 -43 2 -121 80 -76 76 -83 86 -83 123 l0 40 120
-120 121 -120 -37 -3z m-134 53 l54 -55 -62 0 -62 0 0 55 c0 30 4 55 8 55 4 0
32 -25 62 -55z m388 -99 c17 -10 15 -42 -4 -60 -23 -24 -485 -24 -508 0 -18
18 -20 28 -7 52 8 15 34 17 258 16 137 0 254 -4 261 -8z"/>
<path d="M4640 3061 c-50 -16 -87 -40 -123 -80 -50 -55 -68 -104 -68 -180 0
-83 37 -160 99 -208 32 -25 39 -33 24 -33 -29 0 -72 -38 -72 -64 0 -12 7 -32
16 -44 22 -31 11 -52 -26 -52 -71 0 -96 -88 -39 -133 l31 -24 2 -663 1 -662
-27 -14 c-50 -26 -51 -97 -2 -129 23 -14 35 -33 43 -66 45 -173 275 -222 390
-83 16 21 35 58 42 83 8 33 20 52 43 66 53 34 44 117 -14 137 -10 3 -13 142
-14 666 l-1 663 33 25 c25 20 32 33 32 60 0 43 -30 74 -70 74 -37 0 -48 21
-26 52 9 12 16 32 16 44 0 26 -44 64 -74 64 -17 0 -15 4 14 24 161 110 141
367 -35 458 -43 23 -152 33 -195 19z m25 -41 c3 -5 -12 -18 -34 -29 -85 -44
-136 -151 -112 -236 13 -46 -1 -69 -20 -34 -21 38 -16 137 9 184 29 55 41 68
86 99 41 27 61 32 71 16z m-65 -402 c1 -19 -30 -5 -54 23 -27 32 -31 41 -19
53 7 7 72 -62 73 -76z m270 -198 c0 -6 -58 -10 -155 -10 -97 0 -155 4 -155 10
0 6 58 10 155 10 97 0 155 -4 155 -10z m98 -62 c14 -14 16 -54 2 -63 -5 -3
-120 -6 -255 -6 -135 0 -250 3 -255 6 -14 9 -12 49 2 63 17 17 489 17 506 0z
m-318 -111 c0 -1 -29 -32 -65 -67 l-65 -64 0 67 0 67 65 0 c36 0 65 -1 65 -3z
m5 -127 l-130 -131 -3 37 c-3 35 2 43 90 131 86 86 95 93 133 93 l40 0 -130
-130z m255 122 c0 -4 -88 -95 -195 -202 l-195 -195 0 50 0 50 152 152 c149
149 154 153 195 153 24 0 43 -3 43 -8z m-192 -319 l-193 -193 -3 36 c-3 36 2
43 190 231 l193 193 3 -36 c3 -36 -2 -43 -190 -231z m0 -140 l-193 -193 -3 47
-3 47 193 193 193 193 3 -47 3 -47 -193 -193z m0 -120 l-193 -193 -3 36 c-3
36 2 43 190 231 l193 193 3 -36 c3 -36 -2 -43 -190 -231z m0 -140 l-193 -193
-3 47 -3 47 193 193 193 193 3 -47 3 -47 -193 -193z m0 -120 l-193 -193 -3 36
c-3 36 2 43 190 231 l193 193 3 -36 c3 -36 -2 -43 -190 -231z m0 -140 l-193
-193 -3 42 -3 41 193 194 193 193 3 -42 3 -41 -193 -194z m0 -120 c-189 -190
-193 -193 -196 -162 -3 30 11 47 190 226 189 190 193 193 196 162 3 -30 -11
-47 -190 -226z m50 -90 c-141 -142 -143 -143 -188 -143 l-45 0 185 185 185
185 3 -42 c3 -41 3 -42 -140 -185z m65 -65 c-71 -71 -81 -78 -118 -78 l-40 0
115 115 115 116 3 -37 c3 -34 -2 -43 -75 -116z m77 -23 l0 -55 -57 0 -57 0 54
55 c30 30 56 55 57 55 2 0 3 -25 3 -55z m59 -99 c15 -9 14 -49 -1 -64 -17 -17
-489 -17 -506 0 -14 14 -16 50 -3 64 11 10 493 10 510 0z"/>
<path d="M1387 2486 c-7 -17 -8 -17 138 -50 587 -132 1144 -191 1575 -167 371
21 835 93 1168 180 79 21 87 25 78 39 -3 5 -56 -3 -123 -19 -465 -113 -916
-171 -1318 -172 -326 0 -627 28 -1025 98 -136 24 -444 90 -474 101 -7 3 -16
-2 -19 -10z"/>
<path d="M19 2308 c147 -382 311 -818 311 -828 0 -8 -67 -185 -149 -394 -83
-210 -155 -393 -160 -408 l-11 -28 330 0 c287 0 330 2 330 15 0 13 -41 15
-305 15 -168 0 -305 3 -305 8 0 12 303 782 307 779 2 -3 -211 -581 -272 -739
l-15 -38 295 0 c256 0 295 2 295 15 0 13 -37 15 -270 15 -148 0 -270 4 -270 8
0 4 63 175 139 379 l139 372 -135 373 c-74 205 -138 381 -140 391 -5 16 12 17
266 17 234 0 271 2 271 15 0 13 -39 15 -295 15 l-295 0 10 -22 c25 -57 280
-772 277 -775 -4 -3 -307 787 -307 800 0 4 137 7 305 7 264 0 305 2 305 15 0
13 -43 15 -330 15 l-330 0 9 -22z"/>
<path d="M5090 2315 c0 -13 43 -15 308 -17 l308 -3 -145 -368 c-79 -202 -146
-366 -148 -364 -1 2 49 143 112 313 64 170 125 333 135 362 l20 52 -295 0
c-256 0 -295 -2 -295 -15 0 -13 37 -15 270 -15 158 0 270 -4 270 -9 0 -5 -61
-172 -135 -371 -74 -198 -135 -369 -135 -378 0 -9 63 -188 138 -397 l138 -380
-273 -3 c-233 -2 -273 -4 -273 -17 0 -13 41 -15 296 -15 278 0 296 1 289 18
-52 134 -285 790 -285 802 0 8 5 22 10 30 7 11 8 7 4 -15 -4 -23 30 -122 149
-435 l154 -405 -308 -3 c-266 -2 -309 -4 -309 -17 0 -13 45 -15 330 -15 182 0
330 2 330 4 0 3 -70 188 -156 413 -86 224 -158 415 -161 424 -2 8 66 195 153
415 86 219 159 405 161 412 4 9 -65 12 -326 12 -286 0 -331 -2 -331 -15z"/>
<path d="M3320 2100 c-8 -5 -22 -7 -31 -4 -13 3 -21 -7 -33 -43 -10 -30 -13
-49 -6 -51 5 -2 10 -8 10 -13 0 -6 -4 -8 -9 -4 -16 9 -44 -62 -37 -91 5 -20 4
-25 -7 -21 -20 8 -131 -261 -116 -280 6 -7 9 -22 6 -33 -3 -11 -1 -23 4 -26 5
-3 9 6 9 20 0 14 5 26 11 26 5 0 9 -10 7 -21 -2 -16 3 -23 19 -25 25 -4 39 15
63 86 13 40 20 46 65 63 91 35 92 36 31 32 -69 -4 -63 7 12 23 81 18 85 17 78
-18 -4 -22 -1 -32 8 -36 8 -3 15 -13 15 -22 0 -9 3 -29 7 -44 4 -18 2 -28 -5
-28 -6 0 -11 -4 -11 -9 0 -5 10 -7 23 -4 19 4 20 3 5 -7 -10 -6 -18 -21 -18
-33 0 -16 3 -19 9 -8 6 10 14 -3 25 -42 12 -42 20 -55 31 -51 8 4 15 14 15 23
0 13 2 13 9 2 5 -8 8 56 6 157 l-3 170 29 6 c32 6 40 26 10 26 -11 0 -27 3
-37 7 -16 6 -16 7 2 14 18 7 18 8 -3 8 -19 1 -24 14 -48 119 -27 115 -29 119
-60 130 -38 14 -65 15 -85 2z m44 -204 c14 -44 13 -49 -5 -67 -17 -17 -18 -19
-1 -19 14 0 15 -2 2 -10 -8 -5 -26 -9 -40 -9 -23 0 -23 1 -5 9 19 8 19 9 -2 9
-28 1 -28 3 -2 71 33 87 32 86 53 16z m-85 -16 c-10 -28 -29 -41 -29 -20 0 6
4 10 9 10 5 0 11 9 14 20 3 11 8 20 11 20 3 0 0 -13 -5 -30z m-92 -82 c-3 -8
-6 -5 -6 6 -1 11 2 17 5 13 3 -3 4 -12 1 -19z m323 -231 c0 -5 -4 -5 -10 -2
-5 3 -10 14 -10 23 0 15 2 15 10 2 5 -8 10 -19 10 -23z"/>
<path d="M1548 2068 c-10 -16 -19 -81 -27 -198 -7 -96 -15 -177 -18 -180 -3
-3 -3 32 0 76 3 45 3 85 -1 89 -12 12 -30 -227 -19 -252 7 -16 6 -27 -2 -37
-10 -11 -9 -19 1 -35 17 -27 29 -27 118 8 41 16 120 39 175 51 94 21 142 40
102 40 -27 0 -20 17 9 23 21 4 27 0 35 -22 21 -60 37 -76 83 -84 37 -6 55 -3
102 18 67 29 84 23 84 -33 0 -37 14 -35 23 3 3 11 5 4 6 -17 1 -44 4 -45 32
-17 20 20 23 42 40 273 9 138 15 254 13 258 -9 14 -22 9 -27 -9 -3 -12 -5 -8
-6 9 -1 34 -15 43 -34 23 -11 -10 -17 -11 -19 -3 -2 6 -10 8 -16 4 -8 -5 -12
-43 -12 -117 l0 -109 -40 -44 c-41 -45 -53 -69 -22 -45 15 13 16 12 3 -4 -8
-9 -16 -15 -19 -12 -3 3 -25 -13 -48 -36 -40 -40 -43 -40 -53 -21 -17 31 -13
116 10 222 31 149 33 160 20 160 -6 0 -11 -7 -11 -16 0 -8 -4 -13 -9 -10 -5 3
-7 15 -4 25 6 22 -14 38 -29 23 -5 -5 -16 -27 -23 -48 -10 -28 -14 -33 -15
-16 0 12 -4 22 -9 22 -13 0 -35 -155 -36 -256 l0 -90 -67 -1 c-36 0 -88 -5
-115 -11 -123 -27 -169 -25 -66 3 26 7 41 14 33 14 -8 1 -32 -4 -53 -10 -22
-6 -41 -8 -43 -6 -3 3 2 81 10 175 20 215 20 218 1 202 -12 -10 -16 -8 -25 14
-12 32 -14 32 -32 4z m401 -115 c0 -25 -1 -25 -8 -8 -5 11 -7 23 -4 28 8 14
13 7 12 -20z m-19 -113 l-11 -25 6 25 c2 14 5 36 6 50 l2 25 4 -25 c2 -14 -1
-37 -7 -50z m-3 -77 c-3 -10 -5 -2 -5 17 0 19 2 27 5 18 2 -10 2 -26 0 -35z
m20 -145 c-3 -8 -6 -5 -6 6 -1 11 2 17 5 13 3 -3 4 -12 1 -19z m97 -56 c-16
-4 -54 15 -54 27 0 5 15 1 34 -8 18 -9 27 -17 20 -19z"/>
<path d="M2481 2050 c-28 -22 -62 -45 -75 -50 -33 -12 -90 -113 -77 -137 13
-26 45 -53 67 -57 76 -16 121 -29 150 -44 31 -16 32 -19 21 -42 -26 -51 -121
-94 -204 -93 -39 1 -43 -1 -43 -22 0 -26 70 -95 98 -96 15 0 14 -2 -3 -10 -15
-7 -11 -8 15 -3 50 8 91 25 84 35 -3 5 3 9 13 9 43 0 139 96 157 156 10 32
-71 117 -145 152 l-59 28 22 21 c35 32 103 63 154 70 30 4 41 9 32 14 -9 6 -6
9 12 10 23 1 23 2 -5 9 -24 6 -26 8 -7 9 52 3 0 50 -58 52 l-35 1 30 8 c27 7
25 8 -17 9 -25 0 -53 3 -61 6 -8 4 -37 -12 -66 -35z m129 -60 c-8 -5 -21 -10
-28 -10 -7 0 -36 -15 -65 -33 -76 -48 -84 -52 -62 -29 27 28 125 82 150 82 17
0 17 -2 5 -10z m-120 -470 c-8 -5 -24 -10 -35 -10 -17 0 -17 2 -5 10 8 5 24
10 35 10 17 0 17 -2 5 -10z"/>
<path d="M2885 2056 c-22 -19 -56 -43 -75 -53 -32 -18 -87 -92 -89 -120 -1
-17 59 -84 73 -81 19 3 115 -21 146 -37 34 -18 37 -31 14 -63 -29 -42 -151
-86 -208 -75 -23 5 -26 2 -26 -20 0 -31 63 -97 94 -98 19 -1 18 -2 -4 -10 -19
-7 -16 -7 14 -3 50 7 86 21 86 34 0 5 9 10 19 10 26 0 118 85 142 132 l20 39
-32 40 c-33 42 -94 88 -146 108 -18 8 -33 17 -33 21 0 23 142 90 191 90 11 0
17 5 14 10 -3 6 2 10 12 11 13 1 11 3 -7 9 -17 5 -19 8 -7 9 9 1 17 7 17 14 0
17 -41 37 -78 38 l-27 1 25 8 c22 7 20 8 -15 9 -22 1 -49 4 -60 6 -13 4 -34
-6 -60 -29z m125 -66 c-8 -5 -21 -10 -29 -10 -8 0 -44 -19 -80 -41 -45 -29
-60 -35 -46 -19 24 27 122 79 150 79 17 1 17 -1 5 -9z m-10 -374 c0 -2 -8 -10
-17 -17 -16 -13 -17 -12 -4 4 13 16 21 21 21 13z m-65 -46 c-3 -5 -12 -10 -18
-10 -7 0 -6 4 3 10 19 12 23 12 15 0z m-50 -50 c-11 -5 -27 -9 -35 -9 -13 -1
-13 0 0 9 8 5 24 9 35 9 l20 0 -20 -9z"/>
<path d="M3694 2070 c-16 -6 -26 -26 -39 -78 -9 -39 -14 -81 -10 -94 4 -16 3
-19 -3 -9 -15 21 -33 -77 -37 -204 -3 -68 -1 -97 4 -75 l8 35 8 -43 c4 -23 10
-41 14 -40 3 2 18 10 32 17 22 11 27 22 33 70 12 107 39 261 46 261 14 0 133
-296 138 -342 4 -41 8 -48 26 -48 37 0 59 24 73 81 18 71 31 82 23 19 -4 -27
-4 -50 0 -50 3 0 14 53 24 118 9 64 30 167 46 227 16 65 24 114 19 120 -6 5
-9 2 -9 -9 0 -9 -5 -14 -10 -11 -6 4 -8 15 -5 26 5 14 0 20 -22 25 -15 3 -33
7 -39 9 -11 3 -49 -148 -76 -297 -6 -38 -14 -68 -17 -68 -7 0 -51 110 -51 125
1 6 8 -1 16 -15 19 -31 15 -20 -31 100 -21 52 -41 106 -46 119 -7 18 -12 21
-23 12 -10 -8 -17 -6 -31 9 -20 22 -29 23 -61 10z"/>
<path d="M4207 2073 c-9 -2 -15 -8 -12 -13 3 -4 -6 -68 -20 -141 -32 -166 -49
-337 -36 -353 5 -6 11 -24 13 -41 2 -23 8 -31 28 -33 35 -4 61 53 61 133 0 94
17 222 41 323 l22 94 -24 19 c-25 18 -39 21 -73 12z m-10 -155 c-3 -7 -5 -2
-5 12 0 14 2 19 5 13 2 -7 2 -19 0 -25z m-10 -60 c-3 -8 -6 -5 -6 6 -1 11 2
17 5 13 3 -3 4 -12 1 -19z m-10 -60 c-3 -8 -6 -5 -6 6 -1 11 2 17 5 13 3 -3 4
-12 1 -19z m3 -263 c0 -8 -4 -15 -10 -15 -5 0 -7 7 -4 15 4 8 8 15 10 15 2 0
4 -7 4 -15z"/>
<path d="M1945 2050 c-3 -5 -1 -10 4 -10 6 0 11 5 11 10 0 6 -2 10 -4 10 -3 0
-8 -4 -11 -10z"/>
<path d="M3907 1769 c4 -13 8 -18 11 -10 2 7 -1 18 -6 23 -8 8 -9 4 -5 -13z"/>
<path d="M1778 1703 c6 -2 18 -2 25 0 6 3 1 5 -13 5 -14 0 -19 -2 -12 -5z"/>
<path d="M1718 1693 c6 -2 18 -2 25 0 6 3 1 5 -13 5 -14 0 -19 -2 -12 -5z"/>
<path d="M3401 1624 c0 -11 3 -14 6 -6 3 7 2 16 -1 19 -3 4 -6 -2 -5 -13z"/>
<path d="M1384 1355 c-4 -8 -4 -22 0 -30 5 -13 179 -15 1485 -15 1305 0 1480
2 1485 15 3 8 3 22 0 30 -5 13 -180 15 -1485 15 -1306 0 -1480 -2 -1485 -15z
m2946 -15 c0 -7 -495 -10 -1465 -10 -970 0 -1465 3 -1465 10 0 7 495 10 1465
10 970 0 1465 -3 1465 -10z"/>
<path d="M2095 1222 c-3 -3 -5 -14 -5 -25 0 -11 -20 -42 -46 -69 -79 -84 -118
-205 -78 -239 13 -11 21 -10 47 4 20 10 52 15 84 14 68 -3 103 27 103 88 0 22
-6 47 -12 54 -11 10 -9 14 5 22 37 21 57 53 57 90 0 54 -19 68 -90 67 -33 0
-62 -3 -65 -6z m110 -41 c7 -23 -2 -50 -28 -78 -16 -18 -24 -20 -39 -12 -17 9
-19 17 -13 47 4 21 11 43 17 50 16 19 56 15 63 -7z m-155 -152 c-23 -70 -45
-109 -60 -109 -17 0 -11 32 16 90 25 54 53 94 61 86 2 -2 -6 -32 -17 -67z
m108 -10 c4 -34 -32 -79 -64 -79 -29 0 -29 2 -7 63 15 42 21 48 43 45 18 -2
26 -10 28 -29z"/>
<path d="M2757 1193 c-23 -44 -58 -159 -65 -211 -7 -44 -9 -47 -40 -50 -40 -4
-49 15 -28 57 22 41 20 68 -4 81 -12 6 -25 23 -31 36 -15 42 -43 27 -49 -26
-6 -52 -44 -124 -76 -145 -17 -11 -25 -11 -38 -2 -18 13 -14 31 28 128 l15 37
-64 0 c-56 0 -70 -3 -95 -25 -37 -31 -60 -73 -60 -108 0 -18 -6 -29 -20 -32
-41 -11 -20 -28 35 -28 46 1 59 5 86 30 29 27 31 28 25 8 -6 -19 -2 -25 18
-33 59 -22 108 7 148 87 21 44 34 61 42 53 7 -7 5 -26 -6 -61 -9 -28 -14 -57
-12 -64 7 -18 62 -27 99 -16 17 5 41 4 55 -1 55 -20 120 43 120 118 0 48 -12
67 -36 62 -25 -4 -31 -38 -10 -54 15 -11 16 -16 3 -46 -18 -42 -44 -65 -58
-51 -14 14 24 154 51 191 12 16 22 41 23 57 2 24 -2 31 -20 33 -16 2 -26 -5
-36 -25z m-357 -134 c0 -21 -54 -110 -73 -121 -49 -26 -42 50 10 104 27 28 63
38 63 17z"/>
<path d="M3545 1200 c-9 -29 10 -48 33 -34 24 16 22 48 -5 52 -15 2 -23 -3
-28 -18z"/>
<path d="M3327 1116 c-3 -8 -3 -23 0 -34 10 -40 -63 -152 -99 -152 -30 0 -31
24 -4 92 14 36 26 67 26 70 0 10 -114 7 -135 -4 -33 -17 -63 -60 -76 -110 -13
-50 -29 -61 -66 -45 l-22 10 25 30 c36 42 45 72 34 102 -7 19 -17 25 -39 25
-61 0 -113 -76 -92 -132 7 -19 4 -25 -20 -35 -38 -16 -39 -36 -1 -26 15 4 41
7 57 5 17 -1 67 -3 112 -4 79 -2 84 0 112 26 26 25 29 26 24 8 -7 -27 26 -44
69 -37 39 6 92 61 108 111 7 19 15 34 20 34 19 0 20 -22 3 -70 -13 -37 -15
-52 -6 -61 17 -17 75 -19 102 -2 19 12 25 13 32 2 5 -9 33 -13 93 -13 80 0 88
2 115 28 26 25 29 26 24 8 -4 -16 1 -24 21 -33 36 -17 60 3 31 25 -18 13 -18
15 4 72 38 99 40 91 -25 92 -32 0 -67 -4 -79 -10 -33 -17 -63 -60 -76 -110
-13 -49 -36 -65 -64 -44 -15 10 -14 18 9 83 31 85 31 85 4 81 -17 -2 -27 -17
-44 -66 -24 -70 -48 -102 -76 -102 -27 0 -33 27 -14 66 22 48 20 61 -13 78
-17 9 -28 23 -27 33 1 22 -39 30 -47 9z m-347 -70 c0 -27 -37 -79 -51 -71 -14
9 -11 48 7 73 20 29 44 28 44 -2z m210 11 c0 -17 -51 -98 -74 -116 -12 -10
-20 -11 -27 -4 -17 17 -1 69 31 103 28 31 70 41 70 17z m560 0 c0 -17 -51 -98
-74 -116 -12 -10 -20 -11 -27 -4 -17 17 -1 69 31 103 28 31 70 41 70 17z"/>
<path d="M1386 944 c-7 -17 -4 -18 89 -39 786 -180 1384 -222 2005 -144 377
47 865 149 865 180 0 8 -7 12 -15 11 -8 -2 -81 -19 -162 -38 -646 -148 -1177
-191 -1723 -139 -292 28 -795 113 -1002 169 -45 12 -52 12 -57 0z"/>
<path d="M1387 896 c-5 -11 18 -20 101 -40 390 -93 822 -155 1212 -176 400
-20 889 29 1395 140 220 49 255 58 255 70 0 18 -19 18 -91 -1 -41 -10 -173
-39 -294 -63 -691 -140 -1182 -154 -1865 -55 -194 28 -595 106 -691 135 -9 2
-19 -2 -22 -10z"/>
<path d="M2604 446 c-22 -7 -124 -55 -226 -106 -140 -70 -198 -94 -237 -98
-63 -6 -126 16 -166 58 -37 38 -65 40 -65 3 0 -74 94 -183 203 -233 99 -46
170 -61 292 -61 190 0 343 55 433 157 l46 52 49 -54 c55 -61 152 -114 257
-140 86 -22 254 -22 340 0 154 39 290 138 318 233 25 85 8 100 -52 45 -23 -22
-60 -45 -81 -52 -72 -24 -121 -10 -348 101 -204 100 -214 104 -277 104 -73 -1
-152 -34 -188 -80 l-20 -25 -15 23 c-40 62 -180 101 -263 73z"/>
</g>
</svg>
