<?xml version="1.0" standalone="no"?>
<!DOCTYPE svg PUBLIC "-//W3C//DTD SVG 20010904//EN"
 "http://www.w3.org/TR/2001/REC-SVG-20010904/DTD/svg10.dtd">
<svg version="1.0" xmlns="http://www.w3.org/2000/svg"
 width="720.000000pt" height="720.000000pt" viewBox="0 0 720.000000 720.000000"
 preserveAspectRatio="xMidYMid meet">

<g transform="translate(0.000000,720.000000) scale(0.100000,-0.100000)"
fill="#000000" stroke="none">
<path d="M0 3635 c0 -1961 2 -3565 4 -3565 2 0 71 28 153 63 81 35 175 74 208
86 33 13 80 32 104 43 24 10 71 29 105 42 104 39 359 144 401 166 21 11 45 20
53 20 12 0 83 29 187 75 17 7 95 41 174 75 79 34 187 82 239 106 51 24 95 44
97 44 15 0 348 169 376 191 52 41 105 203 145 442 20 121 20 121 111 134 23 3
47 11 52 17 5 6 14 58 20 116 6 58 18 152 25 210 8 58 15 139 15 180 1 84 -4
96 -85 213 -63 89 -102 172 -148 308 -55 166 -136 479 -136 525 0 22 -22 48
-33 38 -12 -12 -44 17 -59 53 -24 58 -35 106 -58 248 -11 72 -30 184 -42 250
-31 178 -34 203 -26 290 4 44 4 97 1 118 -12 78 42 157 108 157 21 0 22 2 15
83 -40 495 -42 947 -5 1242 21 169 92 361 185 500 113 171 400 394 709 552
204 104 462 208 658 264 39 11 110 31 157 45 103 29 290 68 431 89 145 22 349
31 349 17 0 -7 -3 -12 -7 -12 -20 -1 -163 -151 -163 -171 0 -5 36 -9 80 -9 89
0 93 -6 32 -55 -20 -16 -50 -44 -66 -62 l-28 -33 38 -36 c22 -20 102 -85 179
-145 346 -269 447 -371 538 -544 103 -196 104 -201 137 -495 14 -118 11 -450
-5 -740 -8 -146 -18 -315 -21 -376 l-6 -111 41 -6 c50 -6 69 -21 88 -65 20
-49 9 -291 -22 -472 -14 -80 -36 -212 -50 -295 -28 -173 -37 -208 -65 -252
-14 -23 -27 -33 -45 -33 -17 0 -26 -6 -30 -23 -61 -281 -126 -512 -180 -642
-28 -68 -79 -166 -92 -177 -7 -6 -13 -16 -13 -23 0 -8 -4 -15 -8 -17 -10 -4
-66 -87 -75 -110 -8 -24 20 -285 61 -553 l7 -50 53 -7 c74 -11 90 -22 97 -66
32 -200 72 -359 117 -464 20 -47 23 -49 164 -118 80 -39 197 -95 262 -124 64
-30 142 -65 172 -79 30 -14 168 -73 305 -131 138 -58 264 -112 280 -120 17 -7
131 -53 255 -101 243 -94 555 -223 632 -260 l48 -23 0 3564 0 3564 -3600 0
-3600 0 0 -3565z"/>
</g>
</svg>
